<svg xmlns="http://www.w3.org/2000/svg" viewBox="0 0 499 499"><title>Icon-initials</title><rect width="499" height="499" style="fill:#fff6c9"/><path d="M167,346.85a97.52,97.52,0,0,1-40.61-8.53A102.69,102.69,0,0,1,93,314.3a113.44,113.44,0,0,1-22.47-35.81A119.34,119.34,0,0,1,62.49,234a111,111,0,0,1,8.21-42.63A114.76,114.76,0,0,1,93.33,156a102.23,102.23,0,0,1,34-23.87,104.26,104.26,0,0,1,42.16-8.52q31.31,0,53.47,13a84.32,84.32,0,0,1,33.33,35l-31.93,23.56a57.2,57.2,0,0,0-23.25-25.11,65.2,65.2,0,0,0-32.86-8.68,55.87,55.87,0,0,0-25.58,5.89,61.54,61.54,0,0,0-20,16.12A72,72,0,0,0,109.92,207a90.38,90.38,0,0,0-4.34,28.21,85.16,85.16,0,0,0,4.8,29.14A72.09,72.09,0,0,0,124,287.79a63.08,63.08,0,0,0,20.62,15.66,60,60,0,0,0,26,5.58,64,64,0,0,0,32.24-8.68q15.18-8.67,28.52-25.42V317.4Q203.84,346.86,167,346.85Zm61.38-83.39H184V232.15h79.67V345.3H228.34Z" transform="translate(-1 0)" style="fill:#181300"/><path d="M300.25,345.3V125.2H448.12v37.51H343v56.73h87.42v35H343V345.3Z" transform="translate(-1 0)" style="fill:#181300"/></svg>