<svg xmlns="http://www.w3.org/2000/svg" viewBox="0 0 499 499"><title>Icon-full</title><rect width="499" height="499" style="fill:#fff6c9"/><path d="M80.62,287.75a44.86,44.86,0,0,1-18.73-3.93,47.43,47.43,0,0,1-15.38-11.08,52.26,52.26,0,0,1-10.36-16.52,55.08,55.08,0,0,1-3.72-20.52A51.19,51.19,0,0,1,36.22,216a52.74,52.74,0,0,1,10.44-16.3,47.06,47.06,0,0,1,15.65-11,48.13,48.13,0,0,1,19.45-3.94q14.44,0,24.67,6A38.91,38.91,0,0,1,121.8,207l-14.73,10.87a26.35,26.35,0,0,0-10.72-11.58,30.05,30.05,0,0,0-15.16-4A25.77,25.77,0,0,0,69.39,205a28.41,28.41,0,0,0-9.22,7.43,33.24,33.24,0,0,0-5.86,10.87,41.63,41.63,0,0,0-2,13,39.33,39.33,0,0,0,2.22,13.45,33.38,33.38,0,0,0,6.29,10.79,29.26,29.26,0,0,0,9.51,7.23,27.79,27.79,0,0,0,12,2.57,29.45,29.45,0,0,0,14.88-4,46.51,46.51,0,0,0,13.15-11.72v19.59Q97.64,287.76,80.62,287.75Zm28.31-38.46H88.48V234.85h36.75V287h-16.3Z" transform="translate(-1 0)" style="fill:#181300"/><path d="M175,288.47a42,42,0,0,1-16.31-3A36.66,36.66,0,0,1,138.39,265a38.88,38.88,0,0,1-2.72-14.57,39.9,39.9,0,0,1,4.79-19.3A36.7,36.7,0,0,1,154.05,217q8.79-5.29,21.09-5.3T196,217a36.84,36.84,0,0,1,13.44,13.95,38.62,38.62,0,0,1,4.72,18.84c0,1.23-.05,2.38-.14,3.47s-.2,2-.29,2.76H156a20.06,20.06,0,0,0,3.22,10,18.85,18.85,0,0,0,7.15,6.36,19.8,19.8,0,0,0,9.22,2.24,22.37,22.37,0,0,0,10.94-2.79,14.66,14.66,0,0,0,6.93-7.51l16.31,4.58A30,30,0,0,1,202.17,279,36.64,36.64,0,0,1,190.3,286,44.64,44.64,0,0,1,175,288.47ZM155.41,244h39.18a21.87,21.87,0,0,0-3.22-9.72,18.57,18.57,0,0,0-6.93-6.42,19.94,19.94,0,0,0-9.59-2.31,19.15,19.15,0,0,0-9.36,2.31,18.71,18.71,0,0,0-6.87,6.42A21.87,21.87,0,0,0,155.41,244Z" transform="translate(-1 0)" style="fill:#181300"/><path d="M295.55,287H276.38V245.61q0-8.88-3.07-13a10.36,10.36,0,0,0-8.8-4.09,17.44,17.44,0,0,0-7.79,2,23.32,23.32,0,0,0-7,5.37,25.51,25.51,0,0,0-4.79,7.89V287h-19V212.82h17.31v13.85a26.81,26.81,0,0,1,7.29-8.06,35,35,0,0,1,10.15-5.09,39.91,39.91,0,0,1,12.3-1.84,23.85,23.85,0,0,1,11.51,2.47,17,17,0,0,1,6.87,6.72,30.3,30.3,0,0,1,3.29,9.4,58.52,58.52,0,0,1,.93,10.39Z" transform="translate(-1 0)" style="fill:#181300"/><path d="M316.42,287V230.7h-9.86V216h9.86v-4.43a38.75,38.75,0,0,1,3.08-16.09,24.29,24.29,0,0,1,8.65-10.51,23.14,23.14,0,0,1,13.15-3.72,39.2,39.2,0,0,1,9.37,1.14,46.42,46.42,0,0,1,9.08,3.29L356,200.1a16.53,16.53,0,0,0-5.07-1.93,25.26,25.26,0,0,0-5.37-.65c-3.33,0-5.84,1.12-7.5,3.36s-2.51,5.56-2.51,9.94V216h18.31V230.7H335.58V287Z" transform="translate(-1 0)" style="fill:#181300"/><path d="M364.76,201.53V182.65h19v18.88Zm0,85.51V212.11h19V287Z" transform="translate(-1 0)" style="fill:#181300"/><path d="M436.11,288.47a42.13,42.13,0,0,1-16.51-3A36.14,36.14,0,0,1,407.23,277a38,38,0,0,1-7.87-12.38,40.71,40.71,0,0,1,2-33.66,35.76,35.76,0,0,1,13.59-14q8.87-5.24,21-5.23T456.85,217a32.78,32.78,0,0,1,12.87,13.87l-18.59,5.72a16.94,16.94,0,0,0-6.44-6.36,19,19,0,0,0-18.73.52,19.73,19.73,0,0,0-7.08,7.64,26.69,26.69,0,0,0,0,23.15,20,20,0,0,0,7.08,7.85A19,19,0,0,0,442.4,271a19.31,19.31,0,0,0,5.51-3.21,13.32,13.32,0,0,0,3.65-4.51L470.15,269a30.7,30.7,0,0,1-7.51,10A36.2,36.2,0,0,1,451.06,286,42.42,42.42,0,0,1,436.11,288.47Z" transform="translate(-1 0)" style="fill:#181300"/><text transform="translate(134.74 388.2)" style="font-size:95px;fill:#181300;font-family:DejaVuSans, DejaVu Sans">ᚑᚌᚋᚐ</text></svg>