<svg version="1.1" xmlns="http://www.w3.org/2000/svg" viewBox="0 0 48 48" style="display: block;">
	<path fill="currentColor" d="M30.757,5.807c-0.469,0.833 -0.89,1.694 -1.273,2.575c-3.638,-0.546 -7.342,-0.546 -10.989,0c-0.373,-0.881 -0.804,-1.742 -1.273,-2.575c-3.417,0.584 -6.749,1.608 -9.908,3.054c-6.26,9.276 -7.955,18.312 -7.112,27.224c3.666,2.709 7.773,4.777 12.148,6.098c0.986,-1.321 1.857,-2.728 2.604,-4.193c-1.417,-0.526 -2.786,-1.187 -4.097,-1.953c0.345,-0.249 0.68,-0.507 1.005,-0.756c7.687,3.618 16.589,3.618 24.286,0c0.325,0.268 0.661,0.526 1.005,0.756c-1.311,0.775 -2.68,1.426 -4.107,1.962c0.747,1.465 1.618,2.872 2.604,4.193c4.375,-1.321 8.481,-3.379 12.148,-6.088c0.995,-10.338 -1.704,-19.298 -7.132,-27.234c-3.149,-1.445 -6.48,-2.47 -9.898,-3.044l-0.01,-0.019Zm-14.732,24.793c-2.364,0 -4.327,-2.144 -4.327,-4.796c0,-2.652 1.886,-4.805 4.317,-4.805c2.431,0 4.365,2.163 4.327,4.805c-0.038,2.642 -1.905,4.796 -4.317,4.796Zm15.948,0c-2.374,0 -4.317,-2.144 -4.317,-4.796c0,-2.652 1.886,-4.805 4.317,-4.805c2.431,0 4.356,2.163 4.317,4.805c-0.038,2.642 -1.905,4.796 -4.317,4.796Z"/>
</svg>